<svg width="250" height="71" viewBox="0 0 250 71" fill="none" xmlns="http://www.w3.org/2000/svg">
<path d="M17.4453 11.2891C19.707 11.2891 21.8945 12.2812 23.3086 14.0547L26.7695 10.793C24.5781 8.09375 21.1914 6.60547 17.0938 6.60547C9.82031 6.60547 4.38281 11.7148 4.38281 18.8125C4.38281 25.9141 9.82031 31.0273 17.0938 31.0273C21.1914 31.0273 24.5781 29.5352 26.7695 26.8359L23.3086 23.5703C21.8945 25.3477 19.707 26.4141 17.4453 26.3398C13.4219 26.5547 10.1016 23.4297 9.89063 19.4531C9.89063 19.2422 9.89063 19.0273 9.89063 18.8125C9.67969 14.8398 12.7852 11.4297 16.7422 11.2891C17.0234 11.2891 17.2344 11.2891 17.4453 11.2891Z" fill="#F9F1EC"/>
<path d="M45.4141 25.5625L47.4609 30.6016H53.1797L42.7266 7.02734H37.3594L26.9102 30.6016H32.4883L34.5352 25.5625H45.4141ZM39.9727 12.3516L43.7148 21.3711H36.3008L39.9727 12.3516Z" fill="#F9F1EC"/>
<path d="M63.3477 26.6249C60.5938 26.6249 57.9141 25.7733 55.582 24.1405L53.7461 28.2577C55.793 29.8905 59.6055 30.953 63.2812 30.953C69.9844 30.953 73.2383 27.621 73.2383 23.6444C73.2383 14.9804 59.6055 17.9608 59.6055 13.6327C59.6055 12.1405 60.8789 10.9335 64.0547 10.9335C66.3164 11.0038 68.5742 11.6444 70.5508 12.7811L72.25 8.66396C69.7734 7.24209 66.9492 6.53115 64.125 6.60537C57.4883 6.60537 54.2383 9.9374 54.2383 13.9179C54.2383 22.6483 67.8711 19.6679 67.8711 24.0702C67.8711 25.5624 66.5977 26.6249 63.3477 26.6249Z" fill="#F9F1EC"/>
<path d="M76.9805 7.02734H82.418V30.6016H76.9805V7.02734Z" fill="#F9F1EC"/>
<path d="M109.465 7.02734H104.098V21.3711L92.5156 7.02734H87.9961V30.6016H93.3633V16.2578L105.016 30.6016H109.465V7.02734Z" fill="#F9F1EC"/>
<path d="M126.41 31.0273C133.758 31.0273 139.266 25.8438 139.266 18.8125C139.266 11.7852 133.758 6.60547 126.41 6.60547C119 6.60547 113.559 11.7852 113.559 18.8125C113.559 25.8438 119 31.0273 126.41 31.0273ZM126.41 11.2891C130.578 11.2891 133.758 14.3438 133.758 18.8125C133.758 23.2852 130.578 26.3398 126.41 26.3398C122.246 26.3398 119.066 23.2852 119.066 18.8125C119.066 14.3438 122.246 11.2891 126.41 11.2891Z" fill="#F9F1EC"/>
<path d="M48.6602 54.5273L37.0781 40.2578H32.6289V63.7578H37.9961V49.4883L49.6484 63.7578H54.0977V40.2578H48.7305V54.5273H48.6602Z" fill="#F9F1EC"/>
<path d="M65.043 53.9609H75.918V49.6992H65.043V44.5859H77.332V40.1836H59.6758V63.6875H77.7539V59.3555H65.043V53.9609Z" fill="#F9F1EC"/>
<path d="M97.8086 53.1797C97.8086 57.6523 95.9062 59.5 92.5859 59.5C89.3398 59.5 87.3594 57.6523 87.3594 53.1797V40.2578H81.9219V53.3945C81.9219 60.2773 85.875 64.1133 92.5156 64.1133C99.1523 64.1133 103.109 60.2773 103.109 53.3945V40.2578H97.7422V53.1797H97.8086Z" fill="#F9F1EC"/>
<path d="M120.055 44.4453C122.316 44.4453 124.508 45.4375 125.918 47.2148L129.379 44.0195C127.188 41.3203 123.801 39.8281 119.773 39.8281C112.5 39.8281 107.062 44.8711 107.062 51.9727C107.062 59.0703 112.5 64.1133 119.703 64.1133C123.801 64.1133 127.121 62.6211 129.379 59.9219L125.918 56.7266C124.508 58.5039 122.316 59.5703 120.055 59.5C116.102 59.6406 112.785 56.5898 112.57 52.6094C112.57 52.3984 112.57 52.1875 112.57 51.9727C112.43 47.9961 115.465 44.6602 119.422 44.4453C119.633 44.4453 119.844 44.4453 120.055 44.4453Z" fill="#F9F1EC"/>
<path d="M149.152 49.4883H138.559V40.2578H133.121V63.7578H138.559V54.1016H149.152V63.7578H154.59V40.2578H149.152V49.4883Z" fill="#F9F1EC"/>
<path d="M167.582 40.2578L157.133 63.7578H162.711L164.758 58.7188H175.637L177.684 63.7578H183.332L172.879 40.2578H167.582ZM166.523 54.5977L170.195 45.582L173.871 54.5977H166.523Z" fill="#F9F1EC"/>
<path d="M170.27 35.7852L173.16 38.3398H176.973L172.598 33.5117H168.008L163.629 38.3398H167.441L170.27 35.7852Z" fill="#F9F1EC"/>
<path d="M182.129 44.6602H189.617V63.7578H195.055V44.6602H202.539V40.2578H182.203V44.6602H182.129Z" fill="#F9F1EC"/>
<path d="M210.875 53.9609H221.75V49.6992H210.875V44.5859H223.164V40.1836H205.508V63.6875H223.586V59.3555H210.875V53.9609Z" fill="#F9F1EC"/>
<path d="M233.398 59.2852V40.2578H227.965V63.7578H245.125V59.3555H233.398V59.2852Z" fill="#F9F1EC"/>
</svg>
